<?xml version="1.0" standalone="no"?><!DOCTYPE svg PUBLIC "-//W3C//DTD SVG 1.1//EN" "http://www.w3.org/Graphics/SVG/1.1/DTD/svg11.dtd"><svg t="1581339011554" class="icon" viewBox="0 0 1024 1024" version="1.1" xmlns="http://www.w3.org/2000/svg" p-id="5009" xmlns:xlink="http://www.w3.org/1999/xlink" width="32" height="32"><defs><style type="text/css"></style></defs><path d="M256 682.666667h85.333333v85.333333c0 23.466667 19.2 42.666667 42.666667 42.666667s42.666667-19.2 42.666667-42.666667v-128c0-23.466667-19.2-42.666667-42.666667-42.666667H256c-23.466667 0-42.666667 19.2-42.666667 42.666667s19.2 42.666667 42.666667 42.666667z m85.333333-341.333334H256c-23.466667 0-42.666667 19.2-42.666667 42.666667s19.2 42.666667 42.666667 42.666667h128c23.466667 0 42.666667-19.2 42.666667-42.666667V256c0-23.466667-19.2-42.666667-42.666667-42.666667s-42.666667 19.2-42.666667 42.666667v85.333333z m298.666667 469.333334c23.466667 0 42.666667-19.2 42.666667-42.666667v-85.333333h85.333333c23.466667 0 42.666667-19.2 42.666667-42.666667s-19.2-42.666667-42.666667-42.666667h-128c-23.466667 0-42.666667 19.2-42.666667 42.666667v128c0 23.466667 19.2 42.666667 42.666667 42.666667z m42.666667-469.333334V256c0-23.466667-19.2-42.666667-42.666667-42.666667s-42.666667 19.2-42.666667 42.666667v128c0 23.466667 19.2 42.666667 42.666667 42.666667h128c23.466667 0 42.666667-19.2 42.666667-42.666667s-19.2-42.666667-42.666667-42.666667h-85.333333z" p-id="5010" fill="#ffffff"></path></svg>