<?xml version="1.0" standalone="no"?><!DOCTYPE svg PUBLIC "-//W3C//DTD SVG 1.1//EN" "http://www.w3.org/Graphics/SVG/1.1/DTD/svg11.dtd"><svg t="1581339018585" class="icon" viewBox="0 0 1024 1024" version="1.1" xmlns="http://www.w3.org/2000/svg" p-id="5200" xmlns:xlink="http://www.w3.org/1999/xlink" width="32" height="32"><defs><style type="text/css"></style></defs><path d="M256 597.333333c-23.466667 0-42.666667 19.2-42.666667 42.666667v128c0 23.466667 19.2 42.666667 42.666667 42.666667h128c23.466667 0 42.666667-19.2 42.666667-42.666667s-19.2-42.666667-42.666667-42.666667H298.666667v-85.333333c0-23.466667-19.2-42.666667-42.666667-42.666667z m0-170.666666c23.466667 0 42.666667-19.2 42.666667-42.666667V298.666667h85.333333c23.466667 0 42.666667-19.2 42.666667-42.666667s-19.2-42.666667-42.666667-42.666667H256c-23.466667 0-42.666667 19.2-42.666667 42.666667v128c0 23.466667 19.2 42.666667 42.666667 42.666667z m469.333333 298.666666h-85.333333c-23.466667 0-42.666667 19.2-42.666667 42.666667s19.2 42.666667 42.666667 42.666667h128c23.466667 0 42.666667-19.2 42.666667-42.666667v-128c0-23.466667-19.2-42.666667-42.666667-42.666667s-42.666667 19.2-42.666667 42.666667v85.333333zM597.333333 256c0 23.466667 19.2 42.666667 42.666667 42.666667h85.333333v85.333333c0 23.466667 19.2 42.666667 42.666667 42.666667s42.666667-19.2 42.666667-42.666667V256c0-23.466667-19.2-42.666667-42.666667-42.666667h-128c-23.466667 0-42.666667 19.2-42.666667 42.666667z" p-id="5201" fill="#ffffff"></path></svg>