<?xml version="1.0" standalone="no"?><!DOCTYPE svg PUBLIC "-//W3C//DTD SVG 1.1//EN" "http://www.w3.org/Graphics/SVG/1.1/DTD/svg11.dtd"><svg t="1581328624347" class="icon" viewBox="0 0 1024 1024" version="1.1" xmlns="http://www.w3.org/2000/svg" p-id="3531" xmlns:xlink="http://www.w3.org/1999/xlink" width="32" height="32"><defs><style type="text/css"></style></defs><path d="M802.816 552.96c-4.096 5.12-8.192 10.24-13.312 13.312L329.728 872.448c-8.192 6.144-18.432 8.192-28.672 8.192-3.072 0-7.168 0-10.24-1.024-13.312-3.072-24.576-10.24-32.768-21.504-3.072-5.12-6.144-10.24-7.168-16.384-24.576-101.376-36.864-208.896-36.864-317.44 0-109.568 12.288-221.184 36.864-330.752 3.072-13.312 11.264-24.576 22.528-31.744 11.264-7.168 25.6-10.24 38.912-7.168 6.144 1.024 12.288 4.096 18.432 8.192L790.528 481.28c11.264 8.192 18.432 19.456 21.504 32.768 2.048 13.312-1.024 27.648-9.216 38.912z" p-id="3532" fill="#ffffff"></path></svg>