<?xml version="1.0" standalone="no"?><!DOCTYPE svg PUBLIC "-//W3C//DTD SVG 1.1//EN" "http://www.w3.org/Graphics/SVG/1.1/DTD/svg11.dtd"><svg t="1581437139877" class="icon" viewBox="0 0 1024 1024" version="1.1" xmlns="http://www.w3.org/2000/svg" p-id="1967" xmlns:xlink="http://www.w3.org/1999/xlink" width="32" height="32"><defs><style type="text/css"></style></defs><path d="M753.607 584.7c-48.519 0-91.596 23.298-118.66 59.315l-233.123-116.96c3.684-12.936 5.657-26.591 5.657-40.71 0-15.465-2.369-30.374-6.76-44.391l232.241-116.52c26.916 37.549 70.919 62.017 120.644 62.017 81.926 0 148.34-66.412 148.34-148.34 0-81.926-66.413-148.34-148.34-148.34-81.927 0-148.34 66.413-148.34 148.34 0 5.668 0.33 11.258 0.948 16.762l-244.945 122.892c-26.598-25.259-62.553-40.762-102.129-40.762-81.926 0-148.34 66.412-148.34 148.34s66.413 148.34 148.34 148.34c41.018 0 78.144-16.648 104.997-43.555l242.509 121.668c-0.904 6.621-1.382 13.374-1.382 20.242 0 81.927 66.412 148.34 148.34 148.34s148.34-66.413 148.34-148.34c-0.001-81.925-66.409-148.339-148.336-148.339l0 0z" p-id="1968" fill="#ffffff"></path></svg>