<?xml version="1.0" standalone="no"?><!DOCTYPE svg PUBLIC "-//W3C//DTD SVG 1.1//EN" "http://www.w3.org/Graphics/SVG/1.1/DTD/svg11.dtd"><svg t="1581316198987" class="icon" viewBox="0 0 1186 1024" version="1.1" xmlns="http://www.w3.org/2000/svg" p-id="11143" xmlns:xlink="http://www.w3.org/1999/xlink" width="37.0625" height="32"><defs><style type="text/css"></style></defs><path d="M0.069818 302.568727v419.002182L256 721.454545l442.181818 302.545455V0L256.861091 302.568727H0.069818zM605.090909 162.909091v698.181818L256 628.363636l-162.536727 0.116364V395.659636L256 395.636364 605.090909 162.909091z m212.014546 137.867636A369.338182 369.338182 0 0 1 883.386182 512c0 78.405818-24.599273 151.133091-66.280727 211.2l81.268363 46.778182A461.963636 461.963636 0 0 0 976.756364 512c0-95.464727-28.928-184.133818-78.382546-258.001455l-81.268363 46.778182z m272.128-156.625454L1008.174545 190.813091A645.585455 645.585455 0 0 1 1093.469091 512c0 116.736-31.115636 226.327273-85.294546 321.186909l81.05891 46.661818A739.211636 739.211636 0 0 0 1186.839273 512c0-133.841455-35.607273-259.304727-97.605818-367.848727z" p-id="11144" fill="#fff"></path></svg>
