<?xml version="1.0" standalone="no"?><!DOCTYPE svg PUBLIC "-//W3C//DTD SVG 1.1//EN" "http://www.w3.org/Graphics/SVG/1.1/DTD/svg11.dtd"><svg t="1581316097556" class="icon" viewBox="0 0 1024 1024" version="1.1" xmlns="http://www.w3.org/2000/svg" p-id="9704" xmlns:xlink="http://www.w3.org/1999/xlink" width="32" height="32"><defs><style type="text/css"></style></defs><path d="M640 975.722667L264.448 725.333333H21.333333V298.666667h156.650667L15.424 136.106667l60.672-60.010667 870.144 870.122667-60.032 60.650666L640 760.682667v215.04zM263.338667 384H106.666667v256h183.594666L554.666667 816.277333v-140.928L263.317333 384z m376.704 135.317333l-85.333334-85.333333V207.722667l-135.765333 90.496-61.546667-61.525334 282.645334-188.416v471.04z m89.301333 89.301334c37.077333-92.288 18.218667-201.813333-56.533333-276.565334l60.330666-60.330666c108.586667 108.586667 128.704 272.128 60.373334 401.088l-64.170667-64.192z m130.389333 130.410666c100.437333-164.309333 79.573333-381.824-62.592-523.989333l60.330667-60.352c175.658667 175.658667 197.013333 447.146667 64.042667 646.122667L859.733333 739.029333z" p-id="9705" fill="#fff"></path></svg>
